<?xml version="1.0" encoding="UTF-8" standalone="no"?>
<!DOCTYPE svg PUBLIC "-//W3C//DTD SVG 1.1//EN" "http://www.w3.org/Graphics/SVG/1.1/DTD/svg11.dtd">
<svg width="100%" height="100%" viewBox="0 0 1500 280" version="1.1" xmlns="http://www.w3.org/2000/svg" xmlns:xlink="http://www.w3.org/1999/xlink" xml:space="preserve" xmlns:serif="http://www.serif.com/" style="fill-rule:evenodd;clip-rule:evenodd;stroke-linecap:round;stroke-linejoin:round;">
    <g transform="matrix(1,0,0,1,-15778.8,-2688.01)">
        <g transform="matrix(1,0,0,1,0,324.243)">
            <g transform="matrix(1,0,0,1,9494.88,-1800.63)">
                <path d="M6477.69,4173.09L6477.69,4338.88C6477.69,4369.6 6469.65,4392.88 6453.57,4408.72C6437.49,4424.56 6414.93,4432.48 6385.91,4432.48C6354.71,4432.48 6329.92,4423.89 6311.54,4406.72C6293.16,4389.55 6283.97,4364.52 6283.97,4331.63L6363.42,4331.63C6363.42,4342.03 6365.11,4349.34 6368.5,4353.57C6371.88,4357.81 6376.48,4359.92 6382.28,4359.92C6387.12,4359.92 6390.87,4358.35 6393.53,4355.21C6396.19,4352.06 6397.52,4346.62 6397.52,4338.88L6397.52,4173.09L6477.69,4173.09Z" style="fill:white;fill-rule:nonzero;"/>
            </g>
            <g transform="matrix(1,0,0,1,9494.88,-1800.63)">
                <path d="M6970.35,4298.25C6985.83,4301.88 6997.86,4309.32 7006.45,4320.56C7015.03,4331.81 7019.32,4344.81 7019.32,4359.56C7019.32,4382.05 7011.89,4399.4 6997.01,4411.62C6982.14,4423.83 6960.8,4429.94 6932.98,4429.94L6798.39,4429.94L6798.39,4173.09L6929.36,4173.09C6955.48,4173.09 6976.03,4178.77 6991.03,4190.14C7006.02,4201.51 7013.52,4218.08 7013.52,4239.84C7013.52,4254.84 7009.59,4267.48 7001.73,4277.75C6993.87,4288.03 6983.41,4294.86 6970.35,4298.25ZM6878.93,4273.22L6910.13,4273.22C6917.38,4273.22 6922.77,4271.77 6926.27,4268.86C6929.78,4265.96 6931.53,4261.49 6931.53,4255.44C6931.53,4249.15 6929.78,4244.5 6926.27,4241.48C6922.77,4238.45 6917.38,4236.94 6910.13,4236.94L6878.93,4236.94L6878.93,4273.22ZM6915.57,4365.36C6922.82,4365.36 6928.21,4363.97 6931.71,4361.19C6935.22,4358.41 6936.97,4353.88 6936.97,4347.59C6936.97,4335.25 6929.84,4329.09 6915.57,4329.09L6878.93,4329.09L6878.93,4365.36L6915.57,4365.36Z" style="fill:white;fill-rule:nonzero;"/>
            </g>
            <g transform="matrix(1,0,0,1,9494.88,-1800.63)">
                <path d="M7284.15,4173.09L7284.15,4429.94L7203.62,4429.94L7203.62,4329.81L7127.07,4329.81L7127.07,4429.94L7046.53,4429.94L7046.53,4173.09L7127.07,4173.09L7127.07,4265.6L7203.62,4265.6L7203.62,4173.09L7284.15,4173.09Z" style="fill:white;fill-rule:nonzero;"/>
            </g>
            <g transform="matrix(1,0,0,1,9494.88,-1800.63)">
                <path d="M7399.15,4173.09L7399.15,4317.84C7399.15,4329.69 7401.76,4339.06 7406.95,4345.96C7412.15,4352.85 7420.56,4356.3 7432.17,4356.3C7443.78,4356.3 7452.36,4352.85 7457.93,4345.96C7463.49,4339.06 7466.27,4329.69 7466.27,4317.84L7466.27,4173.09L7546.44,4173.09L7546.44,4317.84C7546.44,4342.27 7541.36,4363.13 7531.21,4380.42C7521.05,4397.71 7507.14,4410.71 7489.49,4419.42C7471.83,4428.13 7452.12,4432.48 7430.35,4432.48C7408.59,4432.48 7389.3,4428.13 7372.49,4419.42C7355.68,4410.71 7342.56,4397.77 7333.13,4380.6C7323.7,4363.43 7318.98,4342.51 7318.98,4317.84L7318.98,4173.09L7399.15,4173.09Z" style="fill:white;fill-rule:nonzero;"/>
            </g>
            <g transform="matrix(1,0,0,1,9494.88,-1800.63)">
                <path d="M7782.98,4173.09L7782.98,4236.94L7714.77,4236.94L7714.77,4429.94L7634.24,4429.94L7634.24,4236.94L7566.76,4236.94L7566.76,4173.09L7782.98,4173.09Z" style="fill:white;fill-rule:nonzero;"/>
            </g>
            <g transform="matrix(2.54637,0,0,2.90779,2250.14,-6369.57)">
                <g transform="matrix(4.99181,0,0,4.37136,5391.88,2999.05)">
                    <path d="M19.07,4.93C15.878,1.735 10.9,1.08 6.99,3.34" style="fill:none;fill-rule:nonzero;stroke:white;stroke-width:2px;"/>
                </g>
                <g transform="matrix(4.99181,0,0,4.37136,5391.88,2999.05)">
                    <path d="M4,6L4.01,6" style="fill:none;fill-rule:nonzero;stroke:white;stroke-width:2px;"/>
                </g>
                <g transform="matrix(4.99181,0,0,4.37136,5391.88,2999.05)">
                    <path d="M2.29,9.62C2.098,10.4 2.002,11.201 2.002,12.004C2.002,17.49 6.516,22.004 12.002,22.004C17.487,22.004 22.002,17.49 22.002,12.004C22.002,10.754 21.767,9.514 21.31,8.35" style="fill:none;fill-rule:nonzero;stroke:white;stroke-width:2px;"/>
                </g>
                <g transform="matrix(4.99181,0,0,4.37136,5391.88,2999.05)">
                    <path d="M16.24,7.76C15.114,6.628 13.582,5.99 11.985,5.99C8.694,5.99 5.985,8.699 5.985,11.99C5.985,13.809 6.812,15.532 8.23,16.67" style="fill:none;fill-rule:nonzero;stroke:white;stroke-width:2px;"/>
                </g>
                <g transform="matrix(4.99181,0,0,4.37136,5391.88,2999.05)">
                    <path d="M12,18L12.01,18" style="fill:none;fill-rule:nonzero;stroke:white;stroke-width:2px;"/>
                </g>
                <g transform="matrix(4.99181,0,0,4.37136,5391.88,2999.05)">
                    <path d="M17.99,11.66C18.1,13.589 17.273,15.456 15.77,16.67" style="fill:none;fill-rule:nonzero;stroke:white;stroke-width:2px;"/>
                </g>
                <g transform="matrix(4.99181,0,0,4.37136,5391.88,2999.05)">
                    <circle cx="12" cy="12" r="2" style="fill:none;stroke:white;stroke-width:2px;"/>
                </g>
                <g transform="matrix(4.99181,0,0,4.37136,5391.88,2999.05)">
                    <path d="M13.41,10.59L19.07,4.93" style="fill:none;fill-rule:nonzero;stroke:white;stroke-width:2px;"/>
                </g>
            </g>
        </g>
    </g>
</svg>
